<?xml version="1.0" encoding="UTF-8"?>
<svg xmlns="http://www.w3.org/2000/svg" xmlns:xlink="http://www.w3.org/1999/xlink" width="22pt" height="22pt" viewBox="0 0 22 22" version="1.1">
<g id="surface1">
<path style=" stroke:none;fill-rule:nonzero;fill:rgb(0%,0%,0%);fill-opacity:1;" d="M 22 11 C 22 16.886719 17.078125 21.65625 11 21.65625 C 9.863281 21.65625 8.773438 21.488281 7.746094 21.179688 C 8.191406 20.46875 8.863281 19.308594 9.109375 18.386719 C 9.242188 17.886719 9.792969 15.851562 9.792969 15.851562 C 10.152344 16.511719 11.199219 17.074219 12.3125 17.074219 C 15.628906 17.074219 18.019531 14.121094 18.019531 10.445312 C 18.019531 6.925781 15.054688 4.292969 11.238281 4.292969 C 6.492188 4.292969 3.96875 7.378906 3.96875 10.742188 C 3.96875 12.304688 4.832031 14.253906 6.199219 14.871094 C 6.410156 14.964844 6.519531 14.921875 6.570312 14.730469 C 6.605469 14.582031 6.789062 13.855469 6.875 13.523438 C 6.902344 13.414062 6.886719 13.320312 6.800781 13.21875 C 6.351562 12.679688 5.988281 11.699219 5.988281 10.785156 C 5.988281 8.433594 7.824219 6.160156 10.957031 6.160156 C 13.65625 6.160156 15.550781 7.945312 15.550781 10.496094 C 15.550781 13.378906 14.046875 15.378906 12.089844 15.378906 C 11.011719 15.378906 10.203125 14.515625 10.464844 13.453125 C 10.773438 12.1875 11.371094 10.820312 11.371094 9.902344 C 11.371094 9.085938 10.921875 8.40625 9.980469 8.40625 C 8.875 8.40625 7.988281 9.507812 7.988281 10.992188 C 7.988281 11.9375 8.316406 12.574219 8.316406 12.574219 C 8.316406 12.574219 7.230469 17.03125 7.03125 17.867188 C 6.808594 18.785156 6.898438 20.082031 6.992188 20.925781 C 2.902344 19.375 0 15.515625 0 11 C 0 5.113281 4.921875 0.34375 11 0.34375 C 17.078125 0.34375 22 5.113281 22 11 Z M 22 11 "/>
</g>
</svg>
